# xmcd CD database file
#
# Track frame offsets:
#	150
#	20195
#	37171
#	51307
#	68950
#	80829
#	94931
#	107379
#	119594
#	133783
#	150399
#	164814
#	182825
#	204571
#	220597
#
# Disc length: 3130 seconds
#
# Revision: 0
# Processed by: cddbd v1.5.2PL0 Copyright (c) Steve Scherf et al.
# Submitted via: CDex 1.51
#
DISCID=e20c380f
DTITLE=Greg Hawks - What Goes Around
DYEAR=2015
DGENRE=Country
TTITLE0=We Belong To The Sun
TTITLE1=What Goes Around
TTITLE2=We Got Ours
TTITLE3=You're Not Alone
TTITLE4=Life and Love
TTITLE5=Nothing Under the Sun
TTITLE6=Wide Open Road
TTITLE7=Smiling Jack
TTITLE8=All You Ever Did Was Tear Me Down
TTITLE9=Down In My Bones
TTITLE10=I'll Be Alright
TTITLE11=Soft Place to Fall
TTITLE12=Holding Cell
TTITLE13=Rivers Edge
TTITLE14=Greg Hawks - We Got Ours (Straight Cash Mix)
EXTD=YEAR: 2015
EXTT0=
EXTT1=
EXTT2=
EXTT3=
EXTT4=
EXTT5=
EXTT6=
EXTT7=
EXTT8=
EXTT9=
EXTT10=
EXTT11=
EXTT12=
EXTT13=
EXTT14=
PLAYORDER=
